name Walk2.mot
datacolumns 19
datarows 22
range 2.13300000 2.15400000
endheader

                time	   L_ground_force_vx	   L_ground_force_vy	   L_ground_force_vz	   L_ground_force_px	   L_ground_force_py	   L_ground_force_pz	   R_ground_force_vx	   R_ground_force_vy	   R_ground_force_vz	   R_ground_force_px	   R_ground_force_py	   R_ground_force_pz	   L_ground_torque_x	   L_ground_torque_y	   L_ground_torque_z	   R_ground_torque_x	   R_ground_torque_y	   R_ground_torque_z	
          2.13300000	          0.06743495	          0.17500350	         -0.00307014	         -0.00025486	          0.00000000	         -0.00006108	        -24.17128552	        733.27393683	        -54.02796400	          0.33875773	          0.00000000	          0.12788031	          0.00000000	          0.00036853	          0.00000000	          0.00000000	          7.25029603	          0.00000000	
          2.13400000	          0.06351454	          0.16380319	         -0.00320148	         -0.00025006	          0.00000000	         -0.00006001	        -23.90760550	        732.37561665	        -53.83163319	          0.33912765	          0.00000000	          0.12790937	          0.00000000	          0.00034634	          0.00000000	          0.00000000	          7.17972253	          0.00000000	
          2.13500000	          0.05968746	          0.15293621	         -0.00330956	         -0.00024473	          0.00000000	         -0.00005881	        -23.64657883	        731.49514161	        -53.63696651	          0.33949739	          0.00000000	          0.12793847	          0.00000000	          0.00032473	          0.00000000	          0.00000000	          7.10961960	          0.00000000	
          2.13600000	          0.05596022	          0.14241527	         -0.00339595	         -0.00023893	          0.00000000	         -0.00005748	        -23.38824689	        730.63237419	        -53.44405587	          0.33986701	          0.00000000	          0.12796764	          0.00000000	          0.00030373	          0.00000000	          0.00000000	          7.04000180	          0.00000000	
          2.13700000	          0.05233843	          0.13225072	         -0.00346215	         -0.00023272	          0.00000000	         -0.00005605	        -23.13264770	        729.78716437	        -53.25299461	          0.34023656	          0.00000000	          0.12799696	          0.00000000	          0.00028337	          0.00000000	          0.00000000	          6.97088428	          0.00000000	
          2.13800000	          0.04882680	          0.12245065	         -0.00350965	         -0.00022615	          0.00000000	         -0.00005453	        -22.87981615	        728.95934889	        -53.06387749	          0.34060609	          0.00000000	          0.12802646	          0.00000000	          0.00026367	          0.00000000	          0.00000000	          6.90228266	          0.00000000	
          2.13900000	          0.04542924	          0.11302111	         -0.00353984	         -0.00021929	          0.00000000	         -0.00005293	        -22.62978383	        728.14875184	        -52.87680010	          0.34097566	          0.00000000	          0.12805618	          0.00000000	          0.00024465	          0.00000000	          0.00000000	          6.83421290	          0.00000000	
          2.14000000	          0.04214889	          0.10396623	         -0.00355410	         -0.00021219	          0.00000000	         -0.00005127	        -22.38257875	        727.35518645	        -52.69185829	          0.34134528	          0.00000000	          0.12808618	          0.00000000	          0.00022632	          0.00000000	          0.00000000	          6.76669126	          0.00000000	
          2.14100000	          0.03898818	          0.09528837	         -0.00355370	         -0.00020488	          0.00000000	         -0.00004956	        -22.13822497	        726.57845777	        -52.50914758	          0.34171500	          0.00000000	          0.12811650	          0.00000000	          0.00020869	          0.00000000	          0.00000000	          6.69973431	          0.00000000	
          2.14200000	          0.03594887	          0.08698826	         -0.00353992	         -0.00019743	          0.00000000	         -0.00004780	        -21.89674212	        725.81836552	        -52.32876285	          0.34208485	          0.00000000	          0.12814718	          0.00000000	          0.00019177	          0.00000000	          0.00000000	          6.63335885	          0.00000000	
          2.14300000	          0.03303214	          0.07906516	         -0.00351393	         -0.00018986	          0.00000000	         -0.00004602	        -21.65814483	        725.07470617	        -52.15079831	          0.34245485	          0.00000000	          0.12817828	          0.00000000	          0.00017557	          0.00000000	          0.00000000	          6.56758192	          0.00000000	
          2.14400000	          0.03023858	          0.07151694	         -0.00347687	         -0.00018222	          0.00000000	         -0.00004421	        -21.42244190	        724.34727376	        -51.97534758	          0.34282503	          0.00000000	          0.12820983	          0.00000000	          0.00016008	          0.00000000	          0.00000000	          6.50242054	          0.00000000	
          2.14500000	          0.02756828	          0.06434025	         -0.00342982	         -0.00017453	          0.00000000	         -0.00004239	        -21.18963549	        723.63585961	        -51.80250379	          0.34319542	          0.00000000	          0.12824188	          0.00000000	          0.00014530	          0.00000000	          0.00000000	          6.43789141	          0.00000000	
          2.14600000	          0.02502084	          0.05753064	         -0.00337382	         -0.00016685	          0.00000000	         -0.00004056	        -20.95972035	        722.94025138	        -51.63235929	          0.34356605	          0.00000000	          0.12827447	          0.00000000	          0.00013123	          0.00000000	          0.00000000	          6.37401054	          0.00000000	
          2.14700000	          0.02259545	          0.05108260	         -0.00330982	         -0.00015918	          0.00000000	         -0.00003873	        -20.73268347	        722.26023222	        -51.46500525	          0.34393694	          0.00000000	          0.12830765	          0.00000000	          0.00011787	          0.00000000	          0.00000000	          6.31079282	          0.00000000	
          2.14800000	          0.02029089	          0.04498978	         -0.00323876	         -0.00015157	          0.00000000	         -0.00003692	        -20.50850412	        721.59558111	        -51.30053092	          0.34430813	          0.00000000	          0.12834144	          0.00000000	          0.00010519	          0.00000000	          0.00000000	          6.24825169	          0.00000000	
          2.14900000	          0.01810560	          0.03924499	         -0.00316151	         -0.00014403	          0.00000000	         -0.00003512	        -20.28715464	        720.94607480	        -51.13902304	          0.34467965	          0.00000000	          0.12837589	          0.00000000	          0.00009319	          0.00000000	          0.00000000	          6.18639880	          0.00000000	
          2.15000000	          0.01603770	          0.03384035	         -0.00307887	         -0.00013659	          0.00000000	         -0.00003333	        -20.06860143	        720.31149150	        -50.98056536	          0.34505153	          0.00000000	          0.12841101	          0.00000000	          0.00008186	          0.00000000	          0.00000000	          6.12524369	          0.00000000	
          2.15100000	          0.01408501	          0.02876736	         -0.00299163	         -0.00012926	          0.00000000	         -0.00003158	        -19.85280594	        719.69161557	        -50.82523839	          0.34542381	          0.00000000	          0.12844685	          0.00000000	          0.00007119	          0.00000000	          0.00000000	          6.06479357	          0.00000000	
          2.15200000	          0.01224513	          0.02401699	         -0.00290050	         -0.00012207	          0.00000000	         -0.00002985	        -19.63972527	        719.08624202	        -50.67311926	          0.34579651	          0.00000000	          0.12848343	          0.00000000	          0.00006115	          0.00000000	          0.00000000	          6.00505329	          0.00000000	
          2.15300000	          0.01051541	          0.01957976	         -0.00280616	         -0.00011503	          0.00000000	         -0.00002816	        -19.42931230	        718.49517969	        -50.52428184	          0.34616967	          0.00000000	          0.12852078	          0.00000000	          0.00005173	          0.00000000	          0.00000000	          5.94602546	          0.00000000	
          2.15400000	          0.00889302	          0.01544581	         -0.00270923	         -0.00010815	          0.00000000	         -0.00002651	        -19.22151583	        717.91825266	        -50.37879711	          0.34654330	          0.00000000	          0.12855894	          0.00000000	          0.00004293	          0.00000000	          0.00000000	          5.88771083	          0.00000000	
